<mxfile host="app.diagrams.net" modified="2023-12-28T23:01:46.936Z" agent="Mozilla/5.0 (Windows NT 10.0; Win64; x64; rv:121.0) Gecko/20100101 Firefox/121.0" etag="rwQ7i1jhjfNZx_KmIPNT" version="22.1.15" type="device">
  <diagram name="Page-1" id="7S94C-57my2TiFUEd29m">
    <mxGraphModel dx="1050" dy="578" grid="1" gridSize="10" guides="1" tooltips="1" connect="1" arrows="1" fold="1" page="1" pageScale="1" pageWidth="827" pageHeight="1169" math="1" shadow="0">
      <root>
        <mxCell id="0" />
        <mxCell id="1" parent="0" />
        <mxCell id="vV3_MZtY1UH3ivLTsihq-1" value="" style="endArrow=none;html=1;rounded=0;strokeWidth=5;sourcePerimeterSpacing=10;fillColor=#dae8fc;strokeColor=#6c8ebf;exitX=1;exitY=0.5;exitDx=0;exitDy=0;" parent="1" source="vV3_MZtY1UH3ivLTsihq-6" edge="1">
          <mxGeometry width="50" height="50" relative="1" as="geometry">
            <mxPoint x="160" y="360" as="sourcePoint" />
            <mxPoint x="280" y="360" as="targetPoint" />
          </mxGeometry>
        </mxCell>
        <mxCell id="vV3_MZtY1UH3ivLTsihq-2" value="" style="endArrow=none;html=1;rounded=0;strokeWidth=5;sourcePerimeterSpacing=10;fillColor=#dae8fc;strokeColor=#6c8ebf;exitX=0.5;exitY=1;exitDx=0;exitDy=0;" parent="1" source="vV3_MZtY1UH3ivLTsihq-4" edge="1">
          <mxGeometry width="50" height="50" relative="1" as="geometry">
            <mxPoint x="280" y="260" as="sourcePoint" />
            <mxPoint x="280" y="360" as="targetPoint" />
          </mxGeometry>
        </mxCell>
        <mxCell id="vV3_MZtY1UH3ivLTsihq-4" value="" style="ellipse;whiteSpace=wrap;html=1;aspect=fixed;fillColor=#fff2cc;strokeColor=#d6b656;strokeWidth=4;" parent="1" vertex="1">
          <mxGeometry x="270" y="230" width="20" height="20" as="geometry" />
        </mxCell>
        <mxCell id="vV3_MZtY1UH3ivLTsihq-6" value="" style="ellipse;whiteSpace=wrap;html=1;aspect=fixed;fillColor=#fff2cc;strokeColor=#d6b656;strokeWidth=4;" parent="1" vertex="1">
          <mxGeometry x="110" y="350" width="20" height="20" as="geometry" />
        </mxCell>
        <mxCell id="vV3_MZtY1UH3ivLTsihq-9" value="" style="endArrow=none;html=1;rounded=0;strokeWidth=5;sourcePerimeterSpacing=10;fillColor=#d5e8d4;strokeColor=#808080;exitX=1;exitY=0.5;exitDx=0;exitDy=0;" parent="1" source="vV3_MZtY1UH3ivLTsihq-13" edge="1">
          <mxGeometry width="50" height="50" relative="1" as="geometry">
            <mxPoint x="560" y="357" as="sourcePoint" />
            <mxPoint x="680" y="357" as="targetPoint" />
          </mxGeometry>
        </mxCell>
        <mxCell id="vV3_MZtY1UH3ivLTsihq-10" value="" style="endArrow=none;html=1;rounded=0;strokeWidth=5;sourcePerimeterSpacing=10;fillColor=#d5e8d4;strokeColor=#808080;" parent="1" edge="1">
          <mxGeometry width="50" height="50" relative="1" as="geometry">
            <mxPoint x="680" y="257" as="sourcePoint" />
            <mxPoint x="680" y="357" as="targetPoint" />
          </mxGeometry>
        </mxCell>
        <mxCell id="vV3_MZtY1UH3ivLTsihq-11" value="" style="ellipse;whiteSpace=wrap;html=1;aspect=fixed;fillColor=#fff2cc;strokeColor=#d6b656;strokeWidth=4;" parent="1" vertex="1">
          <mxGeometry x="670" y="237" width="20" height="20" as="geometry" />
        </mxCell>
        <mxCell id="vV3_MZtY1UH3ivLTsihq-13" value="" style="ellipse;whiteSpace=wrap;html=1;aspect=fixed;fillColor=#fff2cc;strokeColor=#d6b656;strokeWidth=4;" parent="1" vertex="1">
          <mxGeometry x="520" y="347" width="20" height="20" as="geometry" />
        </mxCell>
        <mxCell id="vV3_MZtY1UH3ivLTsihq-14" value="" style="endArrow=none;html=1;rounded=0;strokeWidth=5;sourcePerimeterSpacing=10;fillColor=#dae8fc;strokeColor=#6c8ebf;entryX=0;entryY=1;entryDx=0;entryDy=0;exitX=1;exitY=0;exitDx=0;exitDy=0;" parent="1" source="vV3_MZtY1UH3ivLTsihq-13" target="vV3_MZtY1UH3ivLTsihq-11" edge="1">
          <mxGeometry width="50" height="50" relative="1" as="geometry">
            <mxPoint x="540" y="357" as="sourcePoint" />
            <mxPoint x="690" y="367" as="targetPoint" />
          </mxGeometry>
        </mxCell>
        <mxCell id="vV3_MZtY1UH3ivLTsihq-15" value="Khoảng cách Mahattan" style="text;html=1;strokeColor=none;fillColor=none;align=center;verticalAlign=middle;whiteSpace=wrap;rounded=0;fontStyle=1" parent="1" vertex="1">
          <mxGeometry x="130" y="424" width="150" height="30" as="geometry" />
        </mxCell>
        <mxCell id="vV3_MZtY1UH3ivLTsihq-16" value="Khoảng cách Euclid" style="text;html=1;strokeColor=none;fillColor=none;align=center;verticalAlign=middle;whiteSpace=wrap;rounded=0;fontStyle=1" parent="1" vertex="1">
          <mxGeometry x="540" y="426" width="130" height="30" as="geometry" />
        </mxCell>
        <mxCell id="vV3_MZtY1UH3ivLTsihq-19" value="" style="endArrow=classic;html=1;rounded=0;" parent="1" edge="1">
          <mxGeometry width="50" height="50" relative="1" as="geometry">
            <mxPoint x="80" y="480" as="sourcePoint" />
            <mxPoint x="80" y="160" as="targetPoint" />
          </mxGeometry>
        </mxCell>
        <mxCell id="vV3_MZtY1UH3ivLTsihq-20" value="" style="endArrow=classic;html=1;rounded=0;" parent="1" edge="1">
          <mxGeometry width="50" height="50" relative="1" as="geometry">
            <mxPoint x="10" y="400" as="sourcePoint" />
            <mxPoint x="360" y="400" as="targetPoint" />
          </mxGeometry>
        </mxCell>
        <mxCell id="vV3_MZtY1UH3ivLTsihq-21" value="" style="endArrow=classic;html=1;rounded=0;" parent="1" edge="1">
          <mxGeometry width="50" height="50" relative="1" as="geometry">
            <mxPoint x="480" y="480" as="sourcePoint" />
            <mxPoint x="480" y="160" as="targetPoint" />
            <Array as="points">
              <mxPoint x="480" y="310" />
            </Array>
          </mxGeometry>
        </mxCell>
        <mxCell id="vV3_MZtY1UH3ivLTsihq-22" value="$$p$$" style="text;html=1;strokeColor=none;fillColor=none;align=center;verticalAlign=middle;whiteSpace=wrap;rounded=0;fontSize=16;" parent="1" vertex="1">
          <mxGeometry x="90" y="312" width="60" height="30" as="geometry" />
        </mxCell>
        <mxCell id="vV3_MZtY1UH3ivLTsihq-23" value="$$p_2$$" style="text;html=1;strokeColor=none;fillColor=none;align=center;verticalAlign=middle;whiteSpace=wrap;rounded=0;fontSize=16;" parent="1" vertex="1">
          <mxGeometry x="30" y="343" width="60" height="30" as="geometry" />
        </mxCell>
        <mxCell id="vV3_MZtY1UH3ivLTsihq-24" value="$$p_1$$" style="text;html=1;strokeColor=none;fillColor=none;align=center;verticalAlign=middle;whiteSpace=wrap;rounded=0;fontSize=16;" parent="1" vertex="1">
          <mxGeometry x="90" y="397" width="60" height="30" as="geometry" />
        </mxCell>
        <mxCell id="vV3_MZtY1UH3ivLTsihq-25" value="" style="endArrow=none;dashed=1;html=1;strokeWidth=2;rounded=0;entryX=0;entryY=0.5;entryDx=0;entryDy=0;" parent="1" target="vV3_MZtY1UH3ivLTsihq-6" edge="1">
          <mxGeometry width="50" height="50" relative="1" as="geometry">
            <mxPoint x="80" y="360" as="sourcePoint" />
            <mxPoint x="120" y="360" as="targetPoint" />
          </mxGeometry>
        </mxCell>
        <mxCell id="vV3_MZtY1UH3ivLTsihq-26" value="" style="endArrow=none;dashed=1;html=1;strokeWidth=2;rounded=0;entryX=0;entryY=0.5;entryDx=0;entryDy=0;" parent="1" edge="1">
          <mxGeometry width="50" height="50" relative="1" as="geometry">
            <mxPoint x="120" y="400" as="sourcePoint" />
            <mxPoint x="120" y="370" as="targetPoint" />
          </mxGeometry>
        </mxCell>
        <mxCell id="vV3_MZtY1UH3ivLTsihq-27" value="$$q$$" style="text;html=1;strokeColor=none;fillColor=none;align=center;verticalAlign=middle;whiteSpace=wrap;rounded=0;fontSize=16;fontStyle=1" parent="1" vertex="1">
          <mxGeometry x="250" y="196" width="60" height="30" as="geometry" />
        </mxCell>
        <mxCell id="vV3_MZtY1UH3ivLTsihq-28" value="$$q_2$$" style="text;html=1;strokeColor=none;fillColor=none;align=center;verticalAlign=middle;whiteSpace=wrap;rounded=0;fontSize=16;" parent="1" vertex="1">
          <mxGeometry x="30" y="225" width="60" height="30" as="geometry" />
        </mxCell>
        <mxCell id="vV3_MZtY1UH3ivLTsihq-29" value="" style="endArrow=none;dashed=1;html=1;strokeWidth=2;rounded=0;exitX=0.833;exitY=0.5;exitDx=0;exitDy=0;exitPerimeter=0;entryX=0;entryY=0.5;entryDx=0;entryDy=0;" parent="1" source="vV3_MZtY1UH3ivLTsihq-28" target="vV3_MZtY1UH3ivLTsihq-4" edge="1">
          <mxGeometry width="50" height="50" relative="1" as="geometry">
            <mxPoint x="390" y="230" as="sourcePoint" />
            <mxPoint x="110" y="240" as="targetPoint" />
          </mxGeometry>
        </mxCell>
        <mxCell id="vV3_MZtY1UH3ivLTsihq-30" value="$$q_1$$" style="text;html=1;strokeColor=none;fillColor=none;align=center;verticalAlign=middle;whiteSpace=wrap;rounded=0;fontSize=16;" parent="1" vertex="1">
          <mxGeometry x="250" y="397" width="60" height="30" as="geometry" />
        </mxCell>
        <mxCell id="vV3_MZtY1UH3ivLTsihq-31" value="" style="endArrow=none;dashed=1;html=1;strokeWidth=2;rounded=0;exitX=0.5;exitY=0;exitDx=0;exitDy=0;" parent="1" source="vV3_MZtY1UH3ivLTsihq-30" edge="1">
          <mxGeometry width="50" height="50" relative="1" as="geometry">
            <mxPoint x="250" y="375" as="sourcePoint" />
            <mxPoint x="280" y="360" as="targetPoint" />
          </mxGeometry>
        </mxCell>
        <mxCell id="vV3_MZtY1UH3ivLTsihq-33" value="" style="endArrow=classic;html=1;rounded=0;" parent="1" edge="1">
          <mxGeometry width="50" height="50" relative="1" as="geometry">
            <mxPoint x="430" y="399" as="sourcePoint" />
            <mxPoint x="760" y="400" as="targetPoint" />
          </mxGeometry>
        </mxCell>
        <mxCell id="vV3_MZtY1UH3ivLTsihq-34" value="$$p$$" style="text;html=1;strokeColor=none;fillColor=none;align=center;verticalAlign=middle;whiteSpace=wrap;rounded=0;fontSize=16;" parent="1" vertex="1">
          <mxGeometry x="500" y="310" width="60" height="30" as="geometry" />
        </mxCell>
        <mxCell id="vV3_MZtY1UH3ivLTsihq-37" value="" style="endArrow=none;dashed=1;html=1;strokeWidth=2;rounded=0;exitX=0.833;exitY=0.5;exitDx=0;exitDy=0;exitPerimeter=0;entryX=0;entryY=0.5;entryDx=0;entryDy=0;" parent="1" edge="1">
          <mxGeometry width="50" height="50" relative="1" as="geometry">
            <mxPoint x="481" y="246.5" as="sourcePoint" />
            <mxPoint x="671" y="246.5" as="targetPoint" />
          </mxGeometry>
        </mxCell>
        <mxCell id="vV3_MZtY1UH3ivLTsihq-38" value="$$q_2$$" style="text;html=1;strokeColor=none;fillColor=none;align=center;verticalAlign=middle;whiteSpace=wrap;rounded=0;fontSize=16;" parent="1" vertex="1">
          <mxGeometry x="431" y="232" width="60" height="30" as="geometry" />
        </mxCell>
        <mxCell id="vV3_MZtY1UH3ivLTsihq-41" value="$$p_2$$" style="text;html=1;strokeColor=none;fillColor=none;align=center;verticalAlign=middle;whiteSpace=wrap;rounded=0;fontSize=16;" parent="1" vertex="1">
          <mxGeometry x="437" y="342" width="60" height="30" as="geometry" />
        </mxCell>
        <mxCell id="vV3_MZtY1UH3ivLTsihq-43" value="" style="endArrow=none;dashed=1;html=1;strokeWidth=2;rounded=0;exitX=0;exitY=0.5;exitDx=0;exitDy=0;" parent="1" source="vV3_MZtY1UH3ivLTsihq-13" edge="1">
          <mxGeometry width="50" height="50" relative="1" as="geometry">
            <mxPoint x="520" y="370" as="sourcePoint" />
            <mxPoint x="480" y="357" as="targetPoint" />
          </mxGeometry>
        </mxCell>
        <mxCell id="vV3_MZtY1UH3ivLTsihq-46" value="$$p_1$$" style="text;html=1;strokeColor=none;fillColor=none;align=center;verticalAlign=middle;whiteSpace=wrap;rounded=0;fontSize=16;" parent="1" vertex="1">
          <mxGeometry x="500" y="402" width="60" height="30" as="geometry" />
        </mxCell>
        <mxCell id="vV3_MZtY1UH3ivLTsihq-47" value="" style="endArrow=none;dashed=1;html=1;strokeWidth=2;rounded=0;entryX=0;entryY=0.5;entryDx=0;entryDy=0;" parent="1" edge="1">
          <mxGeometry width="50" height="50" relative="1" as="geometry">
            <mxPoint x="530" y="397" as="sourcePoint" />
            <mxPoint x="530" y="367" as="targetPoint" />
          </mxGeometry>
        </mxCell>
        <mxCell id="vV3_MZtY1UH3ivLTsihq-48" value="$$q_1$$" style="text;html=1;strokeColor=none;fillColor=none;align=center;verticalAlign=middle;whiteSpace=wrap;rounded=0;fontSize=16;" parent="1" vertex="1">
          <mxGeometry x="650" y="397" width="60" height="30" as="geometry" />
        </mxCell>
        <mxCell id="vV3_MZtY1UH3ivLTsihq-49" value="" style="endArrow=none;dashed=1;html=1;strokeWidth=2;rounded=0;exitX=0.5;exitY=0;exitDx=0;exitDy=0;" parent="1" source="vV3_MZtY1UH3ivLTsihq-48" edge="1">
          <mxGeometry width="50" height="50" relative="1" as="geometry">
            <mxPoint x="650" y="375" as="sourcePoint" />
            <mxPoint x="680" y="360" as="targetPoint" />
          </mxGeometry>
        </mxCell>
        <mxCell id="vV3_MZtY1UH3ivLTsihq-52" value="$$d_{(p,q)}$$" style="text;html=1;strokeColor=none;fillColor=none;align=center;verticalAlign=middle;whiteSpace=wrap;rounded=0;fontSize=16;fontStyle=0" parent="1" vertex="1">
          <mxGeometry x="540" y="276" width="80" height="30" as="geometry" />
        </mxCell>
        <mxCell id="vV3_MZtY1UH3ivLTsihq-53" value="$$q$$" style="text;html=1;strokeColor=none;fillColor=none;align=center;verticalAlign=middle;whiteSpace=wrap;rounded=0;fontSize=16;" parent="1" vertex="1">
          <mxGeometry x="650" y="207" width="60" height="30" as="geometry" />
        </mxCell>
        <mxCell id="pVaJZ-CWmkF8k0MhHHjO-1" value="" style="endArrow=none;html=1;rounded=0;strokeWidth=5;sourcePerimeterSpacing=10;fillColor=#dae8fc;strokeColor=#6c8ebf;exitX=0.5;exitY=1;exitDx=0;exitDy=0;" parent="1" edge="1">
          <mxGeometry width="50" height="50" relative="1" as="geometry">
            <mxPoint x="80" y="240" as="sourcePoint" />
            <mxPoint x="80" y="360" as="targetPoint" />
          </mxGeometry>
        </mxCell>
        <mxCell id="pVaJZ-CWmkF8k0MhHHjO-2" value="" style="endArrow=none;html=1;rounded=0;strokeWidth=5;sourcePerimeterSpacing=10;fillColor=#dae8fc;strokeColor=#6c8ebf;" parent="1" edge="1">
          <mxGeometry width="50" height="50" relative="1" as="geometry">
            <mxPoint x="120" y="399" as="sourcePoint" />
            <mxPoint x="280" y="399" as="targetPoint" />
          </mxGeometry>
        </mxCell>
        <mxCell id="pVaJZ-CWmkF8k0MhHHjO-3" value="" style="rounded=0;whiteSpace=wrap;html=1;strokeWidth=2;fillColor=#ffffff;strokeColor=#808080;" parent="1" vertex="1">
          <mxGeometry x="669" y="346" width="10" height="10" as="geometry" />
        </mxCell>
        <mxCell id="pVaJZ-CWmkF8k0MhHHjO-4" value="" style="rounded=0;whiteSpace=wrap;html=1;strokeWidth=2;fillColor=#ffffff;strokeColor=#808080;" parent="1" vertex="1">
          <mxGeometry x="269" y="348" width="10" height="10" as="geometry" />
        </mxCell>
        <mxCell id="pVaJZ-CWmkF8k0MhHHjO-6" value="$$d_{(p,q)} = |q_1 - p_1| + |q_2 - p_2|$$" style="text;html=1;strokeColor=none;fillColor=none;align=center;verticalAlign=middle;whiteSpace=wrap;rounded=0;fontSize=15;" parent="1" vertex="1">
          <mxGeometry x="85" y="161" width="220" height="30" as="geometry" />
        </mxCell>
        <mxCell id="pVaJZ-CWmkF8k0MhHHjO-7" value="$$q_2 - p_2$$" style="text;html=1;strokeColor=none;fillColor=none;align=center;verticalAlign=middle;whiteSpace=wrap;rounded=0;fontSize=15;" parent="1" vertex="1">
          <mxGeometry x="290" y="287" width="60" height="30" as="geometry" />
        </mxCell>
        <mxCell id="pVaJZ-CWmkF8k0MhHHjO-8" value="$$q_1 - p_1$$" style="text;html=1;strokeColor=none;fillColor=none;align=center;verticalAlign=middle;whiteSpace=wrap;rounded=0;fontSize=15;" parent="1" vertex="1">
          <mxGeometry x="160" y="358" width="60" height="30" as="geometry" />
        </mxCell>
        <mxCell id="pVaJZ-CWmkF8k0MhHHjO-9" value="$$q_2 - p_2$$" style="text;html=1;strokeColor=none;fillColor=none;align=center;verticalAlign=middle;whiteSpace=wrap;rounded=0;fontSize=15;" parent="1" vertex="1">
          <mxGeometry x="690" y="287" width="60" height="30" as="geometry" />
        </mxCell>
        <mxCell id="pVaJZ-CWmkF8k0MhHHjO-10" value="$$q_1 - p_1$$" style="text;html=1;strokeColor=none;fillColor=none;align=center;verticalAlign=middle;whiteSpace=wrap;rounded=0;fontSize=15;" parent="1" vertex="1">
          <mxGeometry x="570" y="358" width="60" height="30" as="geometry" />
        </mxCell>
        <mxCell id="pVaJZ-CWmkF8k0MhHHjO-11" value="$$d_{(p,q)}^2 = (q_1 - p_1)^2 + (q_2 - p_2)^2$$" style="text;html=1;strokeColor=none;fillColor=none;align=center;verticalAlign=middle;whiteSpace=wrap;rounded=0;fontSize=15;" parent="1" vertex="1">
          <mxGeometry x="495" y="161" width="220" height="30" as="geometry" />
        </mxCell>
        <mxCell id="YaNa_EC3BHQNjt4VGOgk-1" value="" style="endArrow=none;html=1;strokeWidth=2;rounded=0;exitX=1;exitY=0;exitDx=0;exitDy=0;entryX=0;entryY=1;entryDx=0;entryDy=0;strokeColor=#808080;" edge="1" parent="1" source="vV3_MZtY1UH3ivLTsihq-6" target="vV3_MZtY1UH3ivLTsihq-4">
          <mxGeometry width="50" height="50" relative="1" as="geometry">
            <mxPoint x="90" y="250" as="sourcePoint" />
            <mxPoint x="280" y="250" as="targetPoint" />
          </mxGeometry>
        </mxCell>
      </root>
    </mxGraphModel>
  </diagram>
</mxfile>
